<?xml version="1.0"?>
<VTKFile type="PolyData" version="0.1" byte_order="LittleEndian" header_type="UInt32" compressor="vtkZLibDataCompressor">
  <PolyData>
    <Piece NumberOfPoints="12" NumberOfVerts="0" NumberOfLines="0" NumberOfStrips="0" NumberOfPolys="20">
      <PointData>
        <DataArray type="Float32" Name="Normals" NumberOfComponents="3" format="ascii">
          0.0 0.0 1.0
          0.894427 0.0 0.447214
          0.276393 0.850651 0.447214
          -0.723607 0.525731 0.447214
          -0.723607 -0.525731 0.447214
          0.276393 -0.850651 0.447214
          0.723607 0.525731 -0.447214
          -0.276393 0.850651 -0.447214
          -0.894427 0.0 -0.447214
          -0.276393 -0.850651 -0.447214
          0.723607 -0.525731 -0.447214
          0.0 0.0 -1.0
        </DataArray>
      </PointData>
      <CellData>
        <DataArray type="Float32" Name="Quality" format="ascii">
          0.9 0.8 0.7 0.6 0.5 0.4 0.3 0.2 0.1 0.0
          0.1 0.2 0.3 0.4 0.5 0.6 0.7 0.8 0.9 1.0
        </DataArray>
      </CellData>
      <Points>
        <DataArray type="Float32" Name="Points" NumberOfComponents="3" format="ascii">
          0.0 0.0 1.0
          0.894427 0.0 0.447214
          0.276393 0.850651 0.447214
          -0.723607 0.525731 0.447214
          -0.723607 -0.525731 0.447214
          0.276393 -0.850651 0.447214
          0.723607 0.525731 -0.447214
          -0.276393 0.850651 -0.447214
          -0.894427 0.0 -0.447214
          -0.276393 -0.850651 -0.447214
          0.723607 -0.525731 -0.447214
          0.0 0.0 -1.0
        </DataArray>
      </Points>
      <Polys>
        <DataArray type="Int32" Name="connectivity" format="ascii">
          0 1 2
          0 2 3
          0 3 4
          0 4 5
          0 5 1
          1 10 6
          2 6 7
          3 7 8
          4 8 9
          5 9 10
          1 6 2
          2 7 3
          3 8 4
          4 9 5
          5 10 1
          11 6 10
          11 7 6
          11 8 7
          11 9 8
          11 10 9
        </DataArray>
        <DataArray type="Int32" Name="offsets" format="ascii">
          3 6 9 12 15 18 21 24 27 30 33 36 39 42 45 48 51 54 57 60
        </DataArray>
      </Polys>
    </Piece>
  </PolyData>
</VTKFile>